# Blender 5.0.0
# www.blender.org
mtllib HalfTorus.mtl
o Torus
v 1.050000 0.000000 0.000000
v 1.043301 0.025000 0.000000
v 1.025000 0.043301 0.000000
v 1.000000 0.050000 0.000000
v 0.975000 0.043301 0.000000
v 0.956699 0.025000 0.000000
v 0.950000 0.000000 0.000000
v 0.956699 -0.025000 0.000000
v 0.975000 -0.043301 0.000000
v 1.000000 -0.050000 0.000000
v 1.025000 -0.043301 0.000000
v 1.043301 -0.025000 0.000000
v 1.041017 0.000000 -0.137052
v 1.034376 0.025000 -0.136178
v 1.016231 0.043301 -0.133789
v 0.991445 0.050000 -0.130526
v 0.966659 0.043301 -0.127263
v 0.948514 0.025000 -0.124874
v 0.941873 0.000000 -0.124000
v 0.948514 -0.025000 -0.124874
v 0.966659 -0.043301 -0.127263
v 0.991445 -0.050000 -0.130526
v 1.016231 -0.043301 -0.133789
v 1.034376 -0.025000 -0.136178
v 1.014222 0.000000 -0.271760
v 1.007752 0.025000 -0.270026
v 0.990074 0.043301 -0.265289
v 0.965926 0.050000 -0.258819
v 0.941778 0.043301 -0.252349
v 0.924100 0.025000 -0.247612
v 0.917630 0.000000 -0.245878
v 0.924100 -0.025000 -0.247612
v 0.941778 -0.043301 -0.252349
v 0.965926 -0.050000 -0.258819
v 0.990074 -0.043301 -0.265289
v 1.007752 -0.025000 -0.270026
v 0.970074 0.000000 -0.401818
v 0.963885 0.025000 -0.399254
v 0.946977 0.043301 -0.392250
v 0.923880 0.050000 -0.382683
v 0.900783 0.043301 -0.373116
v 0.883874 0.025000 -0.366113
v 0.877686 0.000000 -0.363549
v 0.883874 -0.025000 -0.366113
v 0.900783 -0.043301 -0.373116
v 0.923880 -0.050000 -0.382683
v 0.946977 -0.043301 -0.392250
v 0.963885 -0.025000 -0.399254
v 0.909327 0.000000 -0.525000
v 0.903525 0.025000 -0.521651
v 0.887676 0.043301 -0.512500
v 0.866025 0.050000 -0.500000
v 0.844375 0.043301 -0.487500
v 0.828525 0.025000 -0.478349
v 0.822724 0.000000 -0.475000
v 0.828525 -0.025000 -0.478349
v 0.844375 -0.043301 -0.487500
v 0.866025 -0.050000 -0.500000
v 0.887676 -0.043301 -0.512500
v 0.903525 -0.025000 -0.521651
v 0.833021 0.000000 -0.639199
v 0.827707 0.025000 -0.635121
v 0.813187 0.043301 -0.623980
v 0.793353 0.050000 -0.608761
v 0.773520 0.043301 -0.593542
v 0.759000 0.025000 -0.582401
v 0.753686 0.000000 -0.578323
v 0.759000 -0.025000 -0.582401
v 0.773520 -0.043301 -0.593542
v 0.793353 -0.050000 -0.608761
v 0.813187 -0.043301 -0.623980
v 0.827707 -0.025000 -0.635121
v 0.742462 0.000000 -0.742462
v 0.737725 0.025000 -0.737725
v 0.724784 0.043301 -0.724784
v 0.707107 0.050000 -0.707107
v 0.689429 0.043301 -0.689429
v 0.676488 0.025000 -0.676488
v 0.671751 0.000000 -0.671751
v 0.676488 -0.025000 -0.676488
v 0.689429 -0.043301 -0.689429
v 0.707107 -0.050000 -0.707107
v 0.724784 -0.043301 -0.724784
v 0.737725 -0.025000 -0.737725
v 0.639200 0.000000 -0.833021
v 0.635122 0.025000 -0.827706
v 0.623981 0.043301 -0.813187
v 0.608762 0.050000 -0.793353
v 0.593543 0.043301 -0.773519
v 0.582401 0.025000 -0.759000
v 0.578323 0.000000 -0.753686
v 0.582401 -0.025000 -0.759000
v 0.593543 -0.043301 -0.773519
v 0.608762 -0.050000 -0.793353
v 0.623981 -0.043301 -0.813187
v 0.635122 -0.025000 -0.827706
v 0.525000 0.000000 -0.909327
v 0.521651 0.025000 -0.903525
v 0.512500 0.043301 -0.887676
v 0.500000 0.050000 -0.866025
v 0.487500 0.043301 -0.844375
v 0.478349 0.025000 -0.828525
v 0.475000 0.000000 -0.822724
v 0.478349 -0.025000 -0.828525
v 0.487500 -0.043301 -0.844375
v 0.500000 -0.050000 -0.866025
v 0.512500 -0.043301 -0.887676
v 0.521651 -0.025000 -0.903525
v 0.401818 0.000000 -0.970073
v 0.399254 0.025000 -0.963885
v 0.392251 0.043301 -0.946976
v 0.382684 0.050000 -0.923879
v 0.373117 0.043301 -0.900782
v 0.366113 0.025000 -0.883874
v 0.363549 0.000000 -0.877685
v 0.366113 -0.025000 -0.883874
v 0.373117 -0.043301 -0.900782
v 0.382684 -0.050000 -0.923879
v 0.392251 -0.043301 -0.946976
v 0.399254 -0.025000 -0.963885
v 0.271760 0.000000 -1.014222
v 0.270026 0.025000 -1.007752
v 0.265290 0.043301 -0.990074
v 0.258819 0.050000 -0.965926
v 0.252349 0.043301 -0.941778
v 0.247612 0.025000 -0.924100
v 0.245878 0.000000 -0.917630
v 0.247612 -0.025000 -0.924100
v 0.252349 -0.043301 -0.941778
v 0.258819 -0.050000 -0.965926
v 0.265290 -0.043301 -0.990074
v 0.270026 -0.025000 -1.007752
v 0.137052 0.000000 -1.041017
v 0.136178 0.025000 -1.034376
v 0.133789 0.043301 -1.016231
v 0.130526 0.050000 -0.991445
v 0.127263 0.043301 -0.966659
v 0.124874 0.025000 -0.948514
v 0.124000 0.000000 -0.941873
v 0.124874 -0.025000 -0.948514
v 0.127263 -0.043301 -0.966659
v 0.130526 -0.050000 -0.991445
v 0.133789 -0.043301 -1.016231
v 0.136178 -0.025000 -1.034376
v 0.000000 0.000000 -1.050000
v 0.000000 0.025000 -1.043301
v 0.000000 0.043301 -1.025000
v 0.000000 0.050000 -1.000000
v 0.000000 0.043301 -0.975000
v 0.000000 0.025000 -0.956699
v 0.000000 0.000000 -0.950000
v 0.000000 -0.025000 -0.956699
v 0.000000 -0.043301 -0.975000
v 0.000000 -0.050000 -1.000000
v 0.000000 -0.043301 -1.025000
v 0.000000 -0.025000 -1.043301
v -0.137053 0.000000 -1.041017
v -0.136178 0.025000 -1.034376
v -0.133789 0.043301 -1.016231
v -0.130526 0.050000 -0.991445
v -0.127263 0.043301 -0.966659
v -0.124874 0.025000 -0.948514
v -0.124000 0.000000 -0.941873
v -0.124874 -0.025000 -0.948514
v -0.127263 -0.043301 -0.966659
v -0.130526 -0.050000 -0.991445
v -0.133789 -0.043301 -1.016231
v -0.136178 -0.025000 -1.034376
v -0.271760 0.000000 -1.014222
v -0.270026 0.025000 -1.007752
v -0.265289 0.043301 -0.990074
v -0.258819 0.050000 -0.965926
v -0.252348 0.043301 -0.941778
v -0.247612 0.025000 -0.924100
v -0.245878 0.000000 -0.917630
v -0.247612 -0.025000 -0.924100
v -0.252348 -0.043301 -0.941778
v -0.258819 -0.050000 -0.965926
v -0.265289 -0.043301 -0.990074
v -0.270026 -0.025000 -1.007752
v -0.401818 0.000000 -0.970073
v -0.399254 0.025000 -0.963885
v -0.392251 0.043301 -0.946976
v -0.382684 0.050000 -0.923880
v -0.373116 0.043301 -0.900783
v -0.366113 0.025000 -0.883874
v -0.363549 0.000000 -0.877686
v -0.366113 -0.025000 -0.883874
v -0.373116 -0.043301 -0.900783
v -0.382684 -0.050000 -0.923880
v -0.392251 -0.043301 -0.946976
v -0.399254 -0.025000 -0.963885
v -0.525000 0.000000 -0.909327
v -0.521650 0.025000 -0.903525
v -0.512500 0.043301 -0.887676
v -0.500000 0.050000 -0.866026
v -0.487500 0.043301 -0.844375
v -0.478349 0.025000 -0.828525
v -0.475000 0.000000 -0.822724
v -0.478349 -0.025000 -0.828525
v -0.487500 -0.043301 -0.844375
v -0.500000 -0.050000 -0.866026
v -0.512500 -0.043301 -0.887676
v -0.521650 -0.025000 -0.903525
v -0.639199 0.000000 -0.833021
v -0.635122 0.025000 -0.827707
v -0.623980 0.043301 -0.813187
v -0.608761 0.050000 -0.793353
v -0.593542 0.043301 -0.773520
v -0.582401 0.025000 -0.759000
v -0.578323 0.000000 -0.753686
v -0.582401 -0.025000 -0.759000
v -0.593542 -0.043301 -0.773520
v -0.608761 -0.050000 -0.793353
v -0.623980 -0.043301 -0.813187
v -0.635122 -0.025000 -0.827707
v -0.742462 0.000000 -0.742462
v -0.737726 0.025000 -0.737725
v -0.724785 0.043301 -0.724784
v -0.707107 0.050000 -0.707107
v -0.689429 0.043301 -0.689429
v -0.676488 0.025000 -0.676488
v -0.671752 0.000000 -0.671751
v -0.676488 -0.025000 -0.676488
v -0.689429 -0.043301 -0.689429
v -0.707107 -0.050000 -0.707107
v -0.724785 -0.043301 -0.724784
v -0.737726 -0.025000 -0.737725
v -0.833021 0.000000 -0.639199
v -0.827707 0.025000 -0.635122
v -0.813187 0.043301 -0.623980
v -0.793353 0.050000 -0.608761
v -0.773520 0.043301 -0.593542
v -0.759000 0.025000 -0.582401
v -0.753686 0.000000 -0.578323
v -0.759000 -0.025000 -0.582401
v -0.773520 -0.043301 -0.593542
v -0.793353 -0.050000 -0.608761
v -0.813187 -0.043301 -0.623980
v -0.827707 -0.025000 -0.635122
v -0.909326 0.000000 -0.525000
v -0.903525 0.025000 -0.521651
v -0.887676 0.043301 -0.512500
v -0.866025 0.050000 -0.500000
v -0.844375 0.043301 -0.487500
v -0.828525 0.025000 -0.478350
v -0.822724 0.000000 -0.475000
v -0.828525 -0.025000 -0.478350
v -0.844375 -0.043301 -0.487500
v -0.866025 -0.050000 -0.500000
v -0.887676 -0.043301 -0.512500
v -0.903525 -0.025000 -0.521651
v -0.970073 0.000000 -0.401818
v -0.963885 0.025000 -0.399254
v -0.946976 0.043301 -0.392251
v -0.923880 0.050000 -0.382683
v -0.900783 0.043301 -0.373116
v -0.883874 0.025000 -0.366113
v -0.877686 0.000000 -0.363549
v -0.883874 -0.025000 -0.366113
v -0.900783 -0.043301 -0.373116
v -0.923880 -0.050000 -0.382683
v -0.946976 -0.043301 -0.392251
v -0.963885 -0.025000 -0.399254
v -1.014222 0.000000 -0.271760
v -1.007752 0.025000 -0.270026
v -0.990074 0.043301 -0.265289
v -0.965926 0.050000 -0.258819
v -0.941778 0.043301 -0.252348
v -0.924100 0.025000 -0.247612
v -0.917630 0.000000 -0.245878
v -0.924100 -0.025000 -0.247612
v -0.941778 -0.043301 -0.252348
v -0.965926 -0.050000 -0.258819
v -0.990074 -0.043301 -0.265289
v -1.007752 -0.025000 -0.270026
v -1.041017 0.000000 -0.137053
v -1.034376 0.025000 -0.136178
v -1.016231 0.043301 -0.133789
v -0.991445 0.050000 -0.130526
v -0.966659 0.043301 -0.127263
v -0.948514 0.025000 -0.124874
v -0.941873 0.000000 -0.124000
v -0.948514 -0.025000 -0.124874
v -0.966659 -0.043301 -0.127263
v -0.991445 -0.050000 -0.130526
v -1.016231 -0.043301 -0.133789
v -1.034376 -0.025000 -0.136178
v -1.050000 0.000000 -0.000000
v -1.043301 0.025000 -0.000000
v -1.025000 0.043301 -0.000000
v -1.000000 0.050000 -0.000000
v -0.975000 0.043301 -0.000000
v -0.956699 0.025000 -0.000000
v -0.950000 0.000000 -0.000000
v -0.956699 -0.025000 -0.000000
v -0.975000 -0.043301 -0.000000
v -1.000000 -0.050000 -0.000000
v -1.025000 -0.043301 -0.000000
v -1.043301 -0.025000 -0.000000
vn 0.9640 0.2583 -0.0632
vn 0.7063 0.7063 -0.0463
vn 0.2588 0.9658 -0.0170
vn -0.2588 0.9658 0.0170
vn -0.7063 0.7063 0.0463
vn -0.9640 0.2583 0.0632
vn -0.9640 -0.2583 0.0632
vn -0.7063 -0.7063 0.0463
vn -0.2588 -0.9658 0.0170
vn 0.2588 -0.9658 -0.0170
vn 0.7063 -0.7063 -0.0463
vn 0.9640 -0.2583 -0.0632
vn 0.9475 0.2583 -0.1885
vn 0.6943 0.7063 -0.1381
vn 0.2544 0.9658 -0.0506
vn -0.2544 0.9658 0.0506
vn -0.6943 0.7063 0.1381
vn -0.9475 0.2583 0.1885
vn -0.9475 -0.2583 0.1885
vn -0.6943 -0.7063 0.1381
vn -0.2544 -0.9658 0.0506
vn 0.2544 -0.9658 -0.0506
vn 0.6943 -0.7063 -0.1381
vn 0.9475 -0.2583 -0.1885
vn 0.9148 0.2583 -0.3105
vn 0.6703 0.7063 -0.2275
vn 0.2456 0.9658 -0.0834
vn -0.2456 0.9658 0.0834
vn -0.6703 0.7063 0.2275
vn -0.9148 0.2583 0.3105
vn -0.9148 -0.2583 0.3105
vn -0.6703 -0.7063 0.2275
vn -0.2456 -0.9658 0.0834
vn 0.2456 -0.9658 -0.0834
vn 0.6703 -0.7063 -0.2275
vn 0.9148 -0.2583 -0.3105
vn 0.8664 0.2583 -0.4273
vn 0.6349 0.7063 -0.3131
vn 0.2326 0.9658 -0.1147
vn -0.2326 0.9658 0.1147
vn -0.6349 0.7063 0.3131
vn -0.8664 0.2583 0.4273
vn -0.8664 -0.2583 0.4273
vn -0.6349 -0.7063 0.3131
vn -0.2326 -0.9658 0.1147
vn 0.2326 -0.9658 -0.1147
vn 0.6349 -0.7063 -0.3131
vn 0.8664 -0.2583 -0.4273
vn 0.8033 0.2583 -0.5367
vn 0.5886 0.7063 -0.3933
vn 0.2156 0.9658 -0.1441
vn -0.2156 0.9658 0.1441
vn -0.5886 0.7063 0.3933
vn -0.8033 0.2583 0.5367
vn -0.8033 -0.2583 0.5367
vn -0.5886 -0.7063 0.3933
vn -0.2156 -0.9658 0.1441
vn 0.2156 -0.9658 -0.1441
vn 0.5886 -0.7063 -0.3933
vn 0.8033 -0.2583 -0.5367
vn 0.7263 0.2583 -0.6370
vn 0.5322 0.7063 -0.4667
vn 0.1950 0.9658 -0.1710
vn -0.1950 0.9658 0.1710
vn -0.5322 0.7063 0.4667
vn -0.7263 0.2583 0.6370
vn -0.7263 -0.2583 0.6370
vn -0.5322 -0.7063 0.4667
vn -0.1950 -0.9658 0.1710
vn 0.1950 -0.9658 -0.1710
vn 0.5322 -0.7063 -0.4667
vn 0.7263 -0.2583 -0.6370
vn 0.6370 0.2583 -0.7263
vn 0.4667 0.7063 -0.5322
vn 0.1710 0.9658 -0.1950
vn -0.1710 0.9658 0.1950
vn -0.4667 0.7063 0.5322
vn -0.6370 0.2583 0.7263
vn -0.6370 -0.2583 0.7263
vn -0.4667 -0.7063 0.5322
vn -0.1710 -0.9658 0.1950
vn 0.1710 -0.9658 -0.1950
vn 0.4667 -0.7063 -0.5322
vn 0.6370 -0.2583 -0.7263
vn 0.5367 0.2583 -0.8033
vn 0.3933 0.7063 -0.5886
vn 0.1441 0.9658 -0.2156
vn -0.1441 0.9658 0.2156
vn -0.3933 0.7063 0.5886
vn -0.5367 0.2583 0.8033
vn -0.5367 -0.2583 0.8033
vn -0.3933 -0.7063 0.5886
vn -0.1441 -0.9658 0.2156
vn 0.1441 -0.9658 -0.2156
vn 0.3933 -0.7063 -0.5886
vn 0.5367 -0.2583 -0.8033
vn 0.4273 0.2583 -0.8664
vn 0.3131 0.7063 -0.6349
vn 0.1147 0.9658 -0.2326
vn -0.1147 0.9658 0.2326
vn -0.3131 0.7063 0.6349
vn -0.4273 0.2583 0.8664
vn -0.4273 -0.2583 0.8664
vn -0.3131 -0.7063 0.6349
vn -0.1147 -0.9658 0.2326
vn 0.1147 -0.9658 -0.2326
vn 0.3131 -0.7063 -0.6349
vn 0.4273 -0.2583 -0.8664
vn 0.3105 0.2583 -0.9148
vn 0.2275 0.7063 -0.6703
vn 0.0834 0.9658 -0.2456
vn -0.0834 0.9658 0.2456
vn -0.2275 0.7063 0.6703
vn -0.3105 0.2583 0.9148
vn -0.3105 -0.2583 0.9148
vn -0.2275 -0.7063 0.6703
vn -0.0834 -0.9658 0.2456
vn 0.0834 -0.9658 -0.2456
vn 0.2275 -0.7063 -0.6703
vn 0.3105 -0.2583 -0.9148
vn 0.1885 0.2583 -0.9475
vn 0.1381 0.7064 -0.6943
vn 0.0506 0.9658 -0.2544
vn -0.0506 0.9658 0.2544
vn -0.1381 0.7063 0.6943
vn -0.1885 0.2583 0.9475
vn -0.1885 -0.2583 0.9475
vn -0.1381 -0.7063 0.6943
vn -0.0506 -0.9658 0.2544
vn 0.0506 -0.9658 -0.2544
vn 0.1381 -0.7064 -0.6943
vn 0.1885 -0.2583 -0.9475
vn 0.0632 0.2583 -0.9640
vn 0.0463 0.7063 -0.7063
vn 0.0170 0.9658 -0.2588
vn -0.0170 0.9658 0.2588
vn -0.0463 0.7063 0.7063
vn -0.0632 0.2583 0.9640
vn -0.0632 -0.2583 0.9640
vn -0.0463 -0.7063 0.7063
vn -0.0170 -0.9658 0.2588
vn 0.0170 -0.9658 -0.2588
vn 0.0463 -0.7063 -0.7063
vn 0.0632 -0.2583 -0.9640
vn -0.0632 0.2583 -0.9640
vn -0.0463 0.7063 -0.7063
vn -0.0170 0.9658 -0.2588
vn 0.0170 0.9658 0.2588
vn 0.0463 0.7063 0.7063
vn 0.0632 0.2583 0.9640
vn 0.0632 -0.2583 0.9640
vn 0.0463 -0.7063 0.7063
vn 0.0170 -0.9658 0.2588
vn -0.0170 -0.9658 -0.2588
vn -0.0463 -0.7063 -0.7063
vn -0.0632 -0.2583 -0.9640
vn -0.1885 0.2583 -0.9475
vn -0.1381 0.7063 -0.6943
vn -0.0506 0.9658 -0.2544
vn 0.0506 0.9658 0.2544
vn 0.1381 0.7063 0.6943
vn 0.1885 0.2583 0.9475
vn 0.1885 -0.2583 0.9475
vn 0.1381 -0.7063 0.6943
vn 0.0506 -0.9658 0.2544
vn -0.0506 -0.9658 -0.2544
vn -0.1381 -0.7063 -0.6943
vn -0.1885 -0.2583 -0.9475
vn -0.3105 0.2583 -0.9148
vn -0.2275 0.7063 -0.6703
vn -0.0834 0.9658 -0.2456
vn 0.0834 0.9658 0.2456
vn 0.2275 0.7063 0.6703
vn 0.3105 0.2583 0.9148
vn 0.3105 -0.2583 0.9148
vn 0.2275 -0.7063 0.6703
vn 0.0834 -0.9658 0.2456
vn -0.0834 -0.9658 -0.2456
vn -0.2275 -0.7063 -0.6703
vn -0.3105 -0.2583 -0.9148
vn -0.4273 0.2583 -0.8664
vn -0.3131 0.7063 -0.6349
vn -0.1147 0.9658 -0.2326
vn 0.1147 0.9658 0.2326
vn 0.3131 0.7064 0.6349
vn 0.4273 0.2583 0.8664
vn 0.4273 -0.2583 0.8664
vn 0.3131 -0.7064 0.6349
vn 0.1147 -0.9658 0.2326
vn -0.1147 -0.9658 -0.2326
vn -0.3131 -0.7063 -0.6349
vn -0.4273 -0.2583 -0.8664
vn -0.5367 0.2583 -0.8033
vn -0.3933 0.7063 -0.5886
vn -0.1441 0.9658 -0.2156
vn 0.1441 0.9658 0.2156
vn 0.3933 0.7063 0.5886
vn 0.5367 0.2583 0.8033
vn 0.5367 -0.2583 0.8033
vn 0.3933 -0.7063 0.5886
vn 0.1441 -0.9658 0.2156
vn -0.1441 -0.9658 -0.2156
vn -0.3933 -0.7063 -0.5886
vn -0.5367 -0.2583 -0.8033
vn -0.6370 0.2583 -0.7263
vn -0.4667 0.7063 -0.5322
vn -0.1710 0.9658 -0.1950
vn 0.1710 0.9658 0.1950
vn 0.4667 0.7063 0.5322
vn 0.6370 0.2583 0.7263
vn 0.6370 -0.2583 0.7263
vn 0.4667 -0.7063 0.5322
vn 0.1710 -0.9658 0.1950
vn -0.1710 -0.9658 -0.1950
vn -0.4667 -0.7063 -0.5322
vn -0.6370 -0.2583 -0.7263
vn -0.7263 0.2583 -0.6370
vn -0.5322 0.7063 -0.4667
vn -0.1950 0.9658 -0.1710
vn 0.1950 0.9658 0.1710
vn 0.5322 0.7064 0.4667
vn 0.7263 0.2583 0.6370
vn 0.7263 -0.2583 0.6370
vn 0.5322 -0.7064 0.4667
vn 0.1950 -0.9658 0.1710
vn -0.1950 -0.9658 -0.1710
vn -0.5322 -0.7063 -0.4667
vn -0.7263 -0.2583 -0.6370
vn -0.8033 0.2583 -0.5367
vn -0.5886 0.7063 -0.3933
vn -0.2156 0.9658 -0.1441
vn 0.2156 0.9658 0.1441
vn 0.5886 0.7063 0.3933
vn 0.8033 0.2583 0.5367
vn 0.8033 -0.2583 0.5367
vn 0.5886 -0.7063 0.3933
vn 0.2156 -0.9658 0.1441
vn -0.2156 -0.9658 -0.1441
vn -0.5886 -0.7063 -0.3933
vn -0.8033 -0.2583 -0.5367
vn -0.8664 0.2583 -0.4273
vn -0.6349 0.7063 -0.3131
vn -0.2326 0.9658 -0.1147
vn 0.2326 0.9658 0.1147
vn 0.6349 0.7063 0.3131
vn 0.8664 0.2583 0.4273
vn 0.8664 -0.2583 0.4273
vn 0.6349 -0.7063 0.3131
vn 0.2326 -0.9658 0.1147
vn -0.2326 -0.9658 -0.1147
vn -0.6349 -0.7063 -0.3131
vn -0.8664 -0.2583 -0.4273
vn -0.9148 0.2583 -0.3105
vn -0.6703 0.7063 -0.2275
vn -0.2456 0.9658 -0.0834
vn 0.2456 0.9658 0.0834
vn 0.6703 0.7063 0.2275
vn 0.9148 0.2583 0.3105
vn 0.9148 -0.2583 0.3105
vn 0.6703 -0.7063 0.2275
vn 0.2456 -0.9658 0.0834
vn -0.2456 -0.9658 -0.0834
vn -0.6703 -0.7063 -0.2275
vn -0.9148 -0.2583 -0.3105
vn -0.9475 0.2583 -0.1885
vn -0.6943 0.7063 -0.1381
vn -0.2544 0.9658 -0.0506
vn 0.2544 0.9658 0.0506
vn 0.6943 0.7063 0.1381
vn 0.9475 0.2583 0.1885
vn 0.9475 -0.2583 0.1885
vn 0.6943 -0.7063 0.1381
vn 0.2544 -0.9658 0.0506
vn -0.2544 -0.9658 -0.0506
vn -0.6943 -0.7063 -0.1381
vn -0.9475 -0.2583 -0.1885
vn -0.9640 0.2583 -0.0632
vn -0.7063 0.7063 -0.0463
vn -0.2588 0.9658 -0.0170
vn 0.2588 0.9658 0.0170
vn 0.7063 0.7063 0.0463
vn 0.9640 0.2583 0.0632
vn 0.9640 -0.2583 0.0632
vn 0.7063 -0.7063 0.0463
vn 0.2588 -0.9658 0.0170
vn -0.2588 -0.9658 -0.0170
vn -0.7063 -0.7063 -0.0463
vn -0.9640 -0.2583 -0.0632
vn -0.0000 -0.0000 1.0000
vt 0.500000 0.500000
vt 0.520833 0.500000
vt 0.520833 0.583333
vt 0.500000 0.583333
vt 0.520833 0.666667
vt 0.500000 0.666667
vt 0.520833 0.750000
vt 0.500000 0.750000
vt 0.520833 0.833333
vt 0.500000 0.833333
vt 0.520833 0.916667
vt 0.500000 0.916667
vt 0.520833 1.000000
vt 0.500000 1.000000
vt 0.500000 0.000000
vt 0.520833 0.000000
vt 0.520833 0.083333
vt 0.500000 0.083333
vt 0.520833 0.166667
vt 0.500000 0.166667
vt 0.520833 0.250000
vt 0.500000 0.250000
vt 0.520833 0.333333
vt 0.500000 0.333333
vt 0.520833 0.416667
vt 0.500000 0.416667
vt 0.541667 0.500000
vt 0.541667 0.583333
vt 0.541667 0.666667
vt 0.541667 0.750000
vt 0.541667 0.833333
vt 0.541667 0.916667
vt 0.541667 1.000000
vt 0.541667 0.000000
vt 0.541667 0.083333
vt 0.541667 0.166667
vt 0.541667 0.250000
vt 0.541667 0.333333
vt 0.541667 0.416667
vt 0.562500 0.500000
vt 0.562500 0.583333
vt 0.562500 0.666667
vt 0.562500 0.750000
vt 0.562500 0.833333
vt 0.562500 0.916667
vt 0.562500 1.000000
vt 0.562500 0.000000
vt 0.562500 0.083333
vt 0.562500 0.166667
vt 0.562500 0.250000
vt 0.562500 0.333333
vt 0.562500 0.416667
vt 0.583333 0.500000
vt 0.583333 0.583333
vt 0.583333 0.666667
vt 0.583333 0.750000
vt 0.583333 0.833333
vt 0.583333 0.916667
vt 0.583333 1.000000
vt 0.583333 0.000000
vt 0.583333 0.083333
vt 0.583333 0.166667
vt 0.583333 0.250000
vt 0.583333 0.333333
vt 0.583333 0.416667
vt 0.604167 0.500000
vt 0.604167 0.583333
vt 0.604167 0.666667
vt 0.604167 0.750000
vt 0.604167 0.833333
vt 0.604167 0.916667
vt 0.604167 1.000000
vt 0.604167 0.000000
vt 0.604167 0.083333
vt 0.604167 0.166667
vt 0.604167 0.250000
vt 0.604167 0.333333
vt 0.604167 0.416667
vt 0.625000 0.500000
vt 0.625000 0.583333
vt 0.625000 0.666667
vt 0.625000 0.750000
vt 0.625000 0.833333
vt 0.625000 0.916667
vt 0.625000 1.000000
vt 0.625000 0.000000
vt 0.625000 0.083333
vt 0.625000 0.166667
vt 0.625000 0.250000
vt 0.625000 0.333333
vt 0.625000 0.416667
vt 0.645833 0.500000
vt 0.645833 0.583333
vt 0.645833 0.666667
vt 0.645833 0.750000
vt 0.645833 0.833333
vt 0.645833 0.916667
vt 0.645833 1.000000
vt 0.645833 0.000000
vt 0.645833 0.083333
vt 0.645833 0.166667
vt 0.645833 0.250000
vt 0.645833 0.333333
vt 0.645833 0.416667
vt 0.666667 0.500000
vt 0.666667 0.583333
vt 0.666667 0.666667
vt 0.666667 0.750000
vt 0.666667 0.833333
vt 0.666667 0.916667
vt 0.666667 1.000000
vt 0.666667 0.000000
vt 0.666667 0.083333
vt 0.666667 0.166667
vt 0.666667 0.250000
vt 0.666667 0.333333
vt 0.666667 0.416667
vt 0.687500 0.500000
vt 0.687500 0.583333
vt 0.687500 0.666667
vt 0.687500 0.750000
vt 0.687500 0.833333
vt 0.687500 0.916667
vt 0.687500 1.000000
vt 0.687500 0.000000
vt 0.687500 0.083333
vt 0.687500 0.166667
vt 0.687500 0.250000
vt 0.687500 0.333333
vt 0.687500 0.416667
vt 0.708333 0.500000
vt 0.708333 0.583333
vt 0.708333 0.666667
vt 0.708333 0.750000
vt 0.708333 0.833333
vt 0.708333 0.916667
vt 0.708333 1.000000
vt 0.708333 0.000000
vt 0.708333 0.083333
vt 0.708333 0.166667
vt 0.708333 0.250000
vt 0.708333 0.333333
vt 0.708333 0.416667
vt 0.729167 0.500000
vt 0.729167 0.583333
vt 0.729167 0.666667
vt 0.729167 0.750000
vt 0.729167 0.833333
vt 0.729167 0.916667
vt 0.729167 1.000000
vt 0.729167 0.000000
vt 0.729167 0.083333
vt 0.729167 0.166667
vt 0.729167 0.250000
vt 0.729167 0.333333
vt 0.729167 0.416667
vt 0.750000 0.500000
vt 0.750000 0.583333
vt 0.750000 0.666667
vt 0.750000 0.750000
vt 0.750000 0.833333
vt 0.750000 0.916667
vt 0.750000 1.000000
vt 0.750000 0.000000
vt 0.750000 0.083333
vt 0.750000 0.166667
vt 0.750000 0.250000
vt 0.750000 0.333333
vt 0.750000 0.416667
vt 0.770833 0.500000
vt 0.770833 0.583333
vt 0.770833 0.666667
vt 0.770833 0.750000
vt 0.770833 0.833333
vt 0.770833 0.916667
vt 0.770833 1.000000
vt 0.770833 0.000000
vt 0.770833 0.083333
vt 0.770833 0.166667
vt 0.770833 0.250000
vt 0.770833 0.333333
vt 0.770833 0.416667
vt 0.791667 0.500000
vt 0.791667 0.583333
vt 0.791667 0.666667
vt 0.791667 0.750000
vt 0.791667 0.833333
vt 0.791667 0.916667
vt 0.791667 1.000000
vt 0.791667 0.000000
vt 0.791667 0.083333
vt 0.791667 0.166667
vt 0.791667 0.250000
vt 0.791667 0.333333
vt 0.791667 0.416667
vt 0.812500 0.500000
vt 0.812500 0.583333
vt 0.812500 0.666667
vt 0.812500 0.750000
vt 0.812500 0.833333
vt 0.812500 0.916667
vt 0.812500 1.000000
vt 0.812500 0.000000
vt 0.812500 0.083333
vt 0.812500 0.166667
vt 0.812500 0.250000
vt 0.812500 0.333333
vt 0.812500 0.416667
vt 0.833333 0.500000
vt 0.833333 0.583333
vt 0.833333 0.666667
vt 0.833333 0.750000
vt 0.833333 0.833333
vt 0.833333 0.916667
vt 0.833333 1.000000
vt 0.833333 0.000000
vt 0.833333 0.083333
vt 0.833333 0.166667
vt 0.833333 0.250000
vt 0.833333 0.333333
vt 0.833333 0.416667
vt 0.854167 0.500000
vt 0.854167 0.583333
vt 0.854167 0.666667
vt 0.854167 0.750000
vt 0.854167 0.833333
vt 0.854167 0.916667
vt 0.854167 1.000000
vt 0.854167 0.000000
vt 0.854167 0.083333
vt 0.854167 0.166667
vt 0.854167 0.250000
vt 0.854167 0.333333
vt 0.854167 0.416667
vt 0.875000 0.500000
vt 0.875000 0.583333
vt 0.875000 0.666667
vt 0.875000 0.750000
vt 0.875000 0.833333
vt 0.875000 0.916667
vt 0.875000 1.000000
vt 0.875000 0.000000
vt 0.875000 0.083333
vt 0.875000 0.166667
vt 0.875000 0.250000
vt 0.875000 0.333333
vt 0.875000 0.416667
vt 0.895833 0.500000
vt 0.895833 0.583333
vt 0.895833 0.666667
vt 0.895833 0.750000
vt 0.895833 0.833333
vt 0.895833 0.916667
vt 0.895833 1.000000
vt 0.895833 0.000000
vt 0.895833 0.083333
vt 0.895833 0.166667
vt 0.895833 0.250000
vt 0.895833 0.333333
vt 0.895833 0.416667
vt 0.916667 0.500000
vt 0.916667 0.583333
vt 0.916667 0.666667
vt 0.916667 0.750000
vt 0.916667 0.833333
vt 0.916667 0.916667
vt 0.916667 1.000000
vt 0.916667 0.000000
vt 0.916667 0.083333
vt 0.916667 0.166667
vt 0.916667 0.250000
vt 0.916667 0.333333
vt 0.916667 0.416667
vt 0.937500 0.500000
vt 0.937500 0.583333
vt 0.937500 0.666667
vt 0.937500 0.750000
vt 0.937500 0.833333
vt 0.937500 0.916667
vt 0.937500 1.000000
vt 0.937500 0.000000
vt 0.937500 0.083333
vt 0.937500 0.166667
vt 0.937500 0.250000
vt 0.937500 0.333333
vt 0.937500 0.416667
vt 0.958333 0.500000
vt 0.958333 0.583333
vt 0.958333 0.666667
vt 0.958333 0.750000
vt 0.958333 0.833333
vt 0.958333 0.916667
vt 0.958333 1.000000
vt 0.958333 0.000000
vt 0.958333 0.083333
vt 0.958333 0.166667
vt 0.958333 0.250000
vt 0.958333 0.333333
vt 0.958333 0.416667
vt 0.979167 0.500000
vt 0.979167 0.583333
vt 0.979167 0.666667
vt 0.979167 0.750000
vt 0.979167 0.833333
vt 0.979167 0.916667
vt 0.979167 1.000000
vt 0.979167 0.000000
vt 0.979167 0.083333
vt 0.979167 0.166667
vt 0.979167 0.250000
vt 0.979167 0.333333
vt 0.979167 0.416667
vt 1.000000 0.500000
vt 1.000000 0.583333
vt 1.000000 0.666667
vt 1.000000 0.750000
vt 1.000000 0.833333
vt 1.000000 0.916667
vt 1.000000 1.000000
vt 1.000000 0.000000
vt 1.000000 0.083333
vt 1.000000 0.166667
vt 1.000000 0.250000
vt 1.000000 0.333333
vt 1.000000 0.416667
s 0
f 1/1/1 13/2/1 14/3/1 2/4/1
f 2/4/2 14/3/2 15/5/2 3/6/2
f 3/6/3 15/5/3 16/7/3 4/8/3
f 4/8/4 16/7/4 17/9/4 5/10/4
f 5/10/5 17/9/5 18/11/5 6/12/5
f 6/12/6 18/11/6 19/13/6 7/14/6
f 7/15/7 19/16/7 20/17/7 8/18/7
f 8/18/8 20/17/8 21/19/8 9/20/8
f 9/20/9 21/19/9 22/21/9 10/22/9
f 10/22/10 22/21/10 23/23/10 11/24/10
f 11/24/11 23/23/11 24/25/11 12/26/11
f 12/26/12 24/25/12 13/2/12 1/1/12
f 13/2/13 25/27/13 26/28/13 14/3/13
f 14/3/14 26/28/14 27/29/14 15/5/14
f 15/5/15 27/29/15 28/30/15 16/7/15
f 16/7/16 28/30/16 29/31/16 17/9/16
f 17/9/17 29/31/17 30/32/17 18/11/17
f 18/11/18 30/32/18 31/33/18 19/13/18
f 19/16/19 31/34/19 32/35/19 20/17/19
f 20/17/20 32/35/20 33/36/20 21/19/20
f 21/19/21 33/36/21 34/37/21 22/21/21
f 22/21/22 34/37/22 35/38/22 23/23/22
f 23/23/23 35/38/23 36/39/23 24/25/23
f 24/25/24 36/39/24 25/27/24 13/2/24
f 25/27/25 37/40/25 38/41/25 26/28/25
f 26/28/26 38/41/26 39/42/26 27/29/26
f 27/29/27 39/42/27 40/43/27 28/30/27
f 28/30/28 40/43/28 41/44/28 29/31/28
f 29/31/29 41/44/29 42/45/29 30/32/29
f 30/32/30 42/45/30 43/46/30 31/33/30
f 31/34/31 43/47/31 44/48/31 32/35/31
f 32/35/32 44/48/32 45/49/32 33/36/32
f 33/36/33 45/49/33 46/50/33 34/37/33
f 34/37/34 46/50/34 47/51/34 35/38/34
f 35/38/35 47/51/35 48/52/35 36/39/35
f 36/39/36 48/52/36 37/40/36 25/27/36
f 37/40/37 49/53/37 50/54/37 38/41/37
f 38/41/38 50/54/38 51/55/38 39/42/38
f 39/42/39 51/55/39 52/56/39 40/43/39
f 40/43/40 52/56/40 53/57/40 41/44/40
f 41/44/41 53/57/41 54/58/41 42/45/41
f 42/45/42 54/58/42 55/59/42 43/46/42
f 43/47/43 55/60/43 56/61/43 44/48/43
f 44/48/44 56/61/44 57/62/44 45/49/44
f 45/49/45 57/62/45 58/63/45 46/50/45
f 46/50/46 58/63/46 59/64/46 47/51/46
f 47/51/47 59/64/47 60/65/47 48/52/47
f 48/52/48 60/65/48 49/53/48 37/40/48
f 49/53/49 61/66/49 62/67/49 50/54/49
f 50/54/50 62/67/50 63/68/50 51/55/50
f 51/55/51 63/68/51 64/69/51 52/56/51
f 52/56/52 64/69/52 65/70/52 53/57/52
f 53/57/53 65/70/53 66/71/53 54/58/53
f 54/58/54 66/71/54 67/72/54 55/59/54
f 55/60/55 67/73/55 68/74/55 56/61/55
f 56/61/56 68/74/56 69/75/56 57/62/56
f 57/62/57 69/75/57 70/76/57 58/63/57
f 58/63/58 70/76/58 71/77/58 59/64/58
f 59/64/59 71/77/59 72/78/59 60/65/59
f 60/65/60 72/78/60 61/66/60 49/53/60
f 61/66/61 73/79/61 74/80/61 62/67/61
f 62/67/62 74/80/62 75/81/62 63/68/62
f 63/68/63 75/81/63 76/82/63 64/69/63
f 64/69/64 76/82/64 77/83/64 65/70/64
f 65/70/65 77/83/65 78/84/65 66/71/65
f 66/71/66 78/84/66 79/85/66 67/72/66
f 67/73/67 79/86/67 80/87/67 68/74/67
f 68/74/68 80/87/68 81/88/68 69/75/68
f 69/75/69 81/88/69 82/89/69 70/76/69
f 70/76/70 82/89/70 83/90/70 71/77/70
f 71/77/71 83/90/71 84/91/71 72/78/71
f 72/78/72 84/91/72 73/79/72 61/66/72
f 73/79/73 85/92/73 86/93/73 74/80/73
f 74/80/74 86/93/74 87/94/74 75/81/74
f 75/81/75 87/94/75 88/95/75 76/82/75
f 76/82/76 88/95/76 89/96/76 77/83/76
f 77/83/77 89/96/77 90/97/77 78/84/77
f 78/84/78 90/97/78 91/98/78 79/85/78
f 79/86/79 91/99/79 92/100/79 80/87/79
f 80/87/80 92/100/80 93/101/80 81/88/80
f 81/88/81 93/101/81 94/102/81 82/89/81
f 82/89/82 94/102/82 95/103/82 83/90/82
f 83/90/83 95/103/83 96/104/83 84/91/83
f 84/91/84 96/104/84 85/92/84 73/79/84
f 85/92/85 97/105/85 98/106/85 86/93/85
f 86/93/86 98/106/86 99/107/86 87/94/86
f 87/94/87 99/107/87 100/108/87 88/95/87
f 88/95/88 100/108/88 101/109/88 89/96/88
f 89/96/89 101/109/89 102/110/89 90/97/89
f 90/97/90 102/110/90 103/111/90 91/98/90
f 91/99/91 103/112/91 104/113/91 92/100/91
f 92/100/92 104/113/92 105/114/92 93/101/92
f 93/101/93 105/114/93 106/115/93 94/102/93
f 94/102/94 106/115/94 107/116/94 95/103/94
f 95/103/95 107/116/95 108/117/95 96/104/95
f 96/104/96 108/117/96 97/105/96 85/92/96
f 97/105/97 109/118/97 110/119/97 98/106/97
f 98/106/98 110/119/98 111/120/98 99/107/98
f 99/107/99 111/120/99 112/121/99 100/108/99
f 100/108/100 112/121/100 113/122/100 101/109/100
f 101/109/101 113/122/101 114/123/101 102/110/101
f 102/110/102 114/123/102 115/124/102 103/111/102
f 103/112/103 115/125/103 116/126/103 104/113/103
f 104/113/104 116/126/104 117/127/104 105/114/104
f 105/114/105 117/127/105 118/128/105 106/115/105
f 106/115/106 118/128/106 119/129/106 107/116/106
f 107/116/107 119/129/107 120/130/107 108/117/107
f 108/117/108 120/130/108 109/118/108 97/105/108
f 109/118/109 121/131/109 122/132/109 110/119/109
f 110/119/110 122/132/110 123/133/110 111/120/110
f 111/120/111 123/133/111 124/134/111 112/121/111
f 112/121/112 124/134/112 125/135/112 113/122/112
f 113/122/113 125/135/113 126/136/113 114/123/113
f 114/123/114 126/136/114 127/137/114 115/124/114
f 115/125/115 127/138/115 128/139/115 116/126/115
f 116/126/116 128/139/116 129/140/116 117/127/116
f 117/127/117 129/140/117 130/141/117 118/128/117
f 118/128/118 130/141/118 131/142/118 119/129/118
f 119/129/119 131/142/119 132/143/119 120/130/119
f 120/130/120 132/143/120 121/131/120 109/118/120
f 121/131/121 133/144/121 134/145/121 122/132/121
f 122/132/122 134/145/122 135/146/122 123/133/122
f 123/133/123 135/146/123 136/147/123 124/134/123
f 124/134/124 136/147/124 137/148/124 125/135/124
f 125/135/125 137/148/125 138/149/125 126/136/125
f 126/136/126 138/149/126 139/150/126 127/137/126
f 127/138/127 139/151/127 140/152/127 128/139/127
f 128/139/128 140/152/128 141/153/128 129/140/128
f 129/140/129 141/153/129 142/154/129 130/141/129
f 130/141/130 142/154/130 143/155/130 131/142/130
f 131/142/131 143/155/131 144/156/131 132/143/131
f 132/143/132 144/156/132 133/144/132 121/131/132
f 133/144/133 145/157/133 146/158/133 134/145/133
f 134/145/134 146/158/134 147/159/134 135/146/134
f 135/146/135 147/159/135 148/160/135 136/147/135
f 136/147/136 148/160/136 149/161/136 137/148/136
f 137/148/137 149/161/137 150/162/137 138/149/137
f 138/149/138 150/162/138 151/163/138 139/150/138
f 139/151/139 151/164/139 152/165/139 140/152/139
f 140/152/140 152/165/140 153/166/140 141/153/140
f 141/153/141 153/166/141 154/167/141 142/154/141
f 142/154/142 154/167/142 155/168/142 143/155/142
f 143/155/143 155/168/143 156/169/143 144/156/143
f 144/156/144 156/169/144 145/157/144 133/144/144
f 145/157/145 157/170/145 158/171/145 146/158/145
f 146/158/146 158/171/146 159/172/146 147/159/146
f 147/159/147 159/172/147 160/173/147 148/160/147
f 148/160/148 160/173/148 161/174/148 149/161/148
f 149/161/149 161/174/149 162/175/149 150/162/149
f 150/162/150 162/175/150 163/176/150 151/163/150
f 151/164/151 163/177/151 164/178/151 152/165/151
f 152/165/152 164/178/152 165/179/152 153/166/152
f 153/166/153 165/179/153 166/180/153 154/167/153
f 154/167/154 166/180/154 167/181/154 155/168/154
f 155/168/155 167/181/155 168/182/155 156/169/155
f 156/169/156 168/182/156 157/170/156 145/157/156
f 157/170/157 169/183/157 170/184/157 158/171/157
f 158/171/158 170/184/158 171/185/158 159/172/158
f 159/172/159 171/185/159 172/186/159 160/173/159
f 160/173/160 172/186/160 173/187/160 161/174/160
f 161/174/161 173/187/161 174/188/161 162/175/161
f 162/175/162 174/188/162 175/189/162 163/176/162
f 163/177/163 175/190/163 176/191/163 164/178/163
f 164/178/164 176/191/164 177/192/164 165/179/164
f 165/179/165 177/192/165 178/193/165 166/180/165
f 166/180/166 178/193/166 179/194/166 167/181/166
f 167/181/167 179/194/167 180/195/167 168/182/167
f 168/182/168 180/195/168 169/183/168 157/170/168
f 169/183/169 181/196/169 182/197/169 170/184/169
f 170/184/170 182/197/170 183/198/170 171/185/170
f 171/185/171 183/198/171 184/199/171 172/186/171
f 172/186/172 184/199/172 185/200/172 173/187/172
f 173/187/173 185/200/173 186/201/173 174/188/173
f 174/188/174 186/201/174 187/202/174 175/189/174
f 175/190/175 187/203/175 188/204/175 176/191/175
f 176/191/176 188/204/176 189/205/176 177/192/176
f 177/192/177 189/205/177 190/206/177 178/193/177
f 178/193/178 190/206/178 191/207/178 179/194/178
f 179/194/179 191/207/179 192/208/179 180/195/179
f 180/195/180 192/208/180 181/196/180 169/183/180
f 181/196/181 193/209/181 194/210/181 182/197/181
f 182/197/182 194/210/182 195/211/182 183/198/182
f 183/198/183 195/211/183 196/212/183 184/199/183
f 184/199/184 196/212/184 197/213/184 185/200/184
f 185/200/185 197/213/185 198/214/185 186/201/185
f 186/201/186 198/214/186 199/215/186 187/202/186
f 187/203/187 199/216/187 200/217/187 188/204/187
f 188/204/188 200/217/188 201/218/188 189/205/188
f 189/205/189 201/218/189 202/219/189 190/206/189
f 190/206/190 202/219/190 203/220/190 191/207/190
f 191/207/191 203/220/191 204/221/191 192/208/191
f 192/208/192 204/221/192 193/209/192 181/196/192
f 193/209/193 205/222/193 206/223/193 194/210/193
f 194/210/194 206/223/194 207/224/194 195/211/194
f 195/211/195 207/224/195 208/225/195 196/212/195
f 196/212/196 208/225/196 209/226/196 197/213/196
f 197/213/197 209/226/197 210/227/197 198/214/197
f 198/214/198 210/227/198 211/228/198 199/215/198
f 199/216/199 211/229/199 212/230/199 200/217/199
f 200/217/200 212/230/200 213/231/200 201/218/200
f 201/218/201 213/231/201 214/232/201 202/219/201
f 202/219/202 214/232/202 215/233/202 203/220/202
f 203/220/203 215/233/203 216/234/203 204/221/203
f 204/221/204 216/234/204 205/222/204 193/209/204
f 205/222/205 217/235/205 218/236/205 206/223/205
f 206/223/206 218/236/206 219/237/206 207/224/206
f 207/224/207 219/237/207 220/238/207 208/225/207
f 208/225/208 220/238/208 221/239/208 209/226/208
f 209/226/209 221/239/209 222/240/209 210/227/209
f 210/227/210 222/240/210 223/241/210 211/228/210
f 211/229/211 223/242/211 224/243/211 212/230/211
f 212/230/212 224/243/212 225/244/212 213/231/212
f 213/231/213 225/244/213 226/245/213 214/232/213
f 214/232/214 226/245/214 227/246/214 215/233/214
f 215/233/215 227/246/215 228/247/215 216/234/215
f 216/234/216 228/247/216 217/235/216 205/222/216
f 217/235/217 229/248/217 230/249/217 218/236/217
f 218/236/218 230/249/218 231/250/218 219/237/218
f 219/237/219 231/250/219 232/251/219 220/238/219
f 220/238/220 232/251/220 233/252/220 221/239/220
f 221/239/221 233/252/221 234/253/221 222/240/221
f 222/240/222 234/253/222 235/254/222 223/241/222
f 223/242/223 235/255/223 236/256/223 224/243/223
f 224/243/224 236/256/224 237/257/224 225/244/224
f 225/244/225 237/257/225 238/258/225 226/245/225
f 226/245/226 238/258/226 239/259/226 227/246/226
f 227/246/227 239/259/227 240/260/227 228/247/227
f 228/247/228 240/260/228 229/248/228 217/235/228
f 229/248/229 241/261/229 242/262/229 230/249/229
f 230/249/230 242/262/230 243/263/230 231/250/230
f 231/250/231 243/263/231 244/264/231 232/251/231
f 232/251/232 244/264/232 245/265/232 233/252/232
f 233/252/233 245/265/233 246/266/233 234/253/233
f 234/253/234 246/266/234 247/267/234 235/254/234
f 235/255/235 247/268/235 248/269/235 236/256/235
f 236/256/236 248/269/236 249/270/236 237/257/236
f 237/257/237 249/270/237 250/271/237 238/258/237
f 238/258/238 250/271/238 251/272/238 239/259/238
f 239/259/239 251/272/239 252/273/239 240/260/239
f 240/260/240 252/273/240 241/261/240 229/248/240
f 241/261/241 253/274/241 254/275/241 242/262/241
f 242/262/242 254/275/242 255/276/242 243/263/242
f 243/263/243 255/276/243 256/277/243 244/264/243
f 244/264/244 256/277/244 257/278/244 245/265/244
f 245/265/245 257/278/245 258/279/245 246/266/245
f 246/266/246 258/279/246 259/280/246 247/267/246
f 247/268/247 259/281/247 260/282/247 248/269/247
f 248/269/248 260/282/248 261/283/248 249/270/248
f 249/270/249 261/283/249 262/284/249 250/271/249
f 250/271/250 262/284/250 263/285/250 251/272/250
f 251/272/251 263/285/251 264/286/251 252/273/251
f 252/273/252 264/286/252 253/274/252 241/261/252
f 253/274/253 265/287/253 266/288/253 254/275/253
f 254/275/254 266/288/254 267/289/254 255/276/254
f 255/276/255 267/289/255 268/290/255 256/277/255
f 256/277/256 268/290/256 269/291/256 257/278/256
f 257/278/257 269/291/257 270/292/257 258/279/257
f 258/279/258 270/292/258 271/293/258 259/280/258
f 259/281/259 271/294/259 272/295/259 260/282/259
f 260/282/260 272/295/260 273/296/260 261/283/260
f 261/283/261 273/296/261 274/297/261 262/284/261
f 262/284/262 274/297/262 275/298/262 263/285/262
f 263/285/263 275/298/263 276/299/263 264/286/263
f 264/286/264 276/299/264 265/287/264 253/274/264
f 265/287/265 277/300/265 278/301/265 266/288/265
f 266/288/266 278/301/266 279/302/266 267/289/266
f 267/289/267 279/302/267 280/303/267 268/290/267
f 268/290/268 280/303/268 281/304/268 269/291/268
f 269/291/269 281/304/269 282/305/269 270/292/269
f 270/292/270 282/305/270 283/306/270 271/293/270
f 271/294/271 283/307/271 284/308/271 272/295/271
f 272/295/272 284/308/272 285/309/272 273/296/272
f 273/296/273 285/309/273 286/310/273 274/297/273
f 274/297/274 286/310/274 287/311/274 275/298/274
f 275/298/275 287/311/275 288/312/275 276/299/275
f 276/299/276 288/312/276 277/300/276 265/287/276
f 277/300/277 289/313/277 290/314/277 278/301/277
f 278/301/278 290/314/278 291/315/278 279/302/278
f 279/302/279 291/315/279 292/316/279 280/303/279
f 280/303/280 292/316/280 293/317/280 281/304/280
f 281/304/281 293/317/281 294/318/281 282/305/281
f 282/305/282 294/318/282 295/319/282 283/306/282
f 283/307/283 295/320/283 296/321/283 284/308/283
f 284/308/284 296/321/284 297/322/284 285/309/284
f 285/309/285 297/322/285 298/323/285 286/310/285
f 286/310/286 298/323/286 299/324/286 287/311/286
f 287/311/287 299/324/287 300/325/287 288/312/287
f 288/312/288 300/325/288 289/313/288 277/300/288
f 2/4/289 4/8/289 8/18/289
f 300/325/289 298/323/289 294/318/289
f 12/26/289 1/1/289 2/4/289
f 2/4/289 3/6/289 4/8/289
f 4/8/289 5/10/289 8/18/289
f 5/10/289 6/12/289 8/18/289
f 6/12/289 7/15/289 8/18/289
f 8/18/289 9/20/289 12/26/289
f 9/20/289 10/22/289 12/26/289
f 10/22/289 11/24/289 12/26/289
f 12/26/289 2/4/289 8/18/289
f 290/314/289 289/313/289 300/325/289
f 300/325/289 299/324/289 298/323/289
f 298/323/289 297/322/289 294/318/289
f 297/322/289 296/321/289 294/318/289
f 296/321/289 295/320/289 294/318/289
f 294/318/289 293/317/289 290/314/289
f 293/317/289 292/316/289 290/314/289
f 292/316/289 291/315/289 290/314/289
f 290/314/289 300/325/289 294/318/289
